<svg width="640" height="180" viewBox="0 0 640 180" fill="none" xmlns="http://www.w3.org/2000/svg" role="img" aria-label="TechGear logo">
  <defs>
    <linearGradient id="tg-gradient" x1="0" y1="0" x2="1" y2="1">
      <stop offset="0%" stop-color="#2C3E50" />
      <stop offset="100%" stop-color="#3498DB" />
    </linearGradient>
    <filter id="shadow" x="-20%" y="-20%" width="140%" height="140%">
      <feDropShadow dx="0" dy="2" stdDeviation="3" flood-color="#000000" flood-opacity="0.15" />
    </filter>
  </defs>

  <!-- Icon: stylized gear + chip -->
  <g transform="translate(30,30)" filter="url(#shadow)">
    <circle cx="60" cy="60" r="46" fill="url(#tg-gradient)"/>
    <circle cx="60" cy="60" r="26" fill="#ECF0F1"/>
    <circle cx="60" cy="60" r="10" fill="#2C3E50"/>

    <!-- Gear teeth -->
    <g fill="#2C3E50">
      <rect x="56" y="6" width="8" height="14" rx="2"/>
      <rect x="56" y="100" width="8" height="14" rx="2"/>
      <rect x="6" y="56" width="14" height="8" rx="2"/>
      <rect x="100" y="56" width="14" height="8" rx="2"/>
      <rect x="20" y="20" width="12" height="8" rx="2" transform="rotate(-45 26 24)"/>
      <rect x="88" y="20" width="12" height="8" rx="2" transform="rotate(45 94 24)"/>
      <rect x="20" y="88" width="12" height="8" rx="2" transform="rotate(45 26 92)"/>
      <rect x="88" y="88" width="12" height="8" rx="2" transform="rotate(-45 94 92)"/>
    </g>

    <!-- Chip lines -->
    <g stroke="#ECF0F1" stroke-width="3" stroke-linecap="round">
      <line x1="60" y1="18" x2="60" y2="34" />
      <line x1="60" y1="86" x2="60" y2="102" />
      <line x1="18" y1="60" x2="34" y2="60" />
      <line x1="86" y1="60" x2="102" y2="60" />
    </g>
  </g>

  <!-- Wordmark -->
  <g transform="translate(160,50)">
    <text x="0" y="60" font-family="'Poppins', 'Inter', Arial, sans-serif" font-size="64" font-weight="700" fill="#2C3E50">Tech</text>
    <text x="172" y="60" font-family="'Poppins', 'Inter', Arial, sans-serif" font-size="64" font-weight="700" fill="#3498DB">Gear</text>
    <text x="4" y="98" font-family="'Inter', Arial, sans-serif" font-size="18" font-weight="500" fill="#7F8C8D">Premium Hardware Store</text>
  </g>
</svg>
